 <svg viewBox="0 0 112 38" fill="none" preserveAspectRatio="xMinYMin meet" xmlns="http://www.w3.org/2000/svg">
    <path d="M69.9319 4.72165C69.6401 4.11878 69.8974 3.37539 70.5559 3.11844C73.1355 2.11152 75.7324 1.9198 78.2319 2.73043C78.941 2.96002 79.2047 3.74836 78.8819 4.3623L78.7945 4.52933L78.4532 4.38989L78.4474 4.38786C75.9889 3.49229 73.1187 3.62558 70.5716 4.8021L70.0806 5.02886L69.9319 4.72165ZM70.3469 5.57888L73.2754 11.6279C73.6038 12.3062 74.5844 12.3289 74.9454 11.6656L75.5325 10.5874L75.533 10.5885C75.6037 10.7345 75.7309 10.8471 75.8866 10.9016C76.0423 10.956 76.2137 10.9478 76.3632 10.8787C76.5127 10.8097 76.628 10.6854 76.6837 10.5334C76.7394 10.3813 76.731 10.2138 76.6603 10.0678L76.1267 8.96558C76.0935 8.89551 76.0888 8.81572 76.1135 8.74237C76.1382 8.66902 76.1905 8.60759 76.2599 8.5705C76.3292 8.53342 76.4104 8.52346 76.487 8.54263C76.5636 8.56181 76.6299 8.60869 76.6724 8.67379L76.8216 8.9821C76.8923 9.12812 77.0195 9.24073 77.1752 9.29516C77.3309 9.34958 77.5024 9.34137 77.6518 9.27232C77.8013 9.20327 77.9166 9.07904 77.9723 8.92697C78.0281 8.77489 78.0196 8.60742 77.949 8.4614L77.3524 7.22924C77.6562 6.68136 78.1114 5.82507 78.5087 5.07296L78.2237 4.95598C75.9315 4.12309 73.2385 4.24329 70.8373 5.35237L70.3469 5.57888ZM73.4722 5.98256C73.4983 6.03663 73.5133 6.09518 73.5162 6.1549C73.5192 6.21461 73.5101 6.27431 73.4894 6.33058C73.4687 6.38686 73.4369 6.4386 73.3958 6.48287C73.3547 6.52714 73.305 6.56306 73.2497 6.58858C73.1943 6.6141 73.1344 6.62872 73.0732 6.63161C73.0121 6.6345 72.951 6.6256 72.8934 6.60542C72.8358 6.58523 72.7828 6.55416 72.7375 6.51398C72.6921 6.4738 72.6554 6.4253 72.6292 6.37123C72.5764 6.26209 72.5701 6.1369 72.6118 6.02323C72.6534 5.90955 72.7396 5.81669 72.8513 5.76508C72.9631 5.71346 73.0912 5.70732 73.2076 5.748C73.324 5.78869 73.4191 5.87286 73.4719 5.98201M75.6818 6.3086C75.7347 6.41775 75.741 6.54293 75.6993 6.65661C75.6577 6.77029 75.5715 6.86315 75.4598 6.91476C75.348 6.96637 75.2199 6.97251 75.1035 6.93183C74.9871 6.89115 74.892 6.80697 74.8392 6.69782C74.7863 6.58868 74.7801 6.46349 74.8217 6.34982C74.8634 6.23614 74.9495 6.14328 75.0613 6.09167C75.173 6.04005 75.3012 6.03391 75.4176 6.07459C75.5339 6.11528 75.629 6.19945 75.6818 6.3086ZM74.6764 8.45857C74.7295 8.56831 74.7358 8.69416 74.6939 8.80844C74.6521 8.92273 74.5654 9.01608 74.4531 9.06797C74.3407 9.11986 74.2119 9.12604 74.0949 9.08514C73.9779 9.04424 73.8823 8.95961 73.8292 8.84988C73.7761 8.74014 73.7698 8.61429 73.8116 8.50001C73.8535 8.38572 73.9401 8.29237 74.0525 8.24048C74.1648 8.18858 74.2937 8.18241 74.4107 8.22331C74.5277 8.26421 74.6232 8.34884 74.6764 8.45857Z" fill="var(--acento)" />
    <path d="M11.4888 19.4736L8.22574 7.02308C6.61685 7.6207 5.37052 8.55034 4.48677 9.81199C3.60301 11.0515 3.16113 12.5788 3.16113 14.3938C3.16113 15.2127 3.24044 15.7882 3.39907 16.1203C3.55769 16.4301 3.637 16.6072 3.637 16.6515C2.41334 16.6515 1.49559 16.408 0.883757 15.921C0.294586 15.412 0 14.5819 0 13.4309C0 12.0143 0.589171 10.642 1.76751 9.31397C2.96852 7.96378 4.4981 6.8792 6.35625 6.06024C8.21441 5.21914 10.0726 4.79858 11.9307 4.79858C12.248 4.79858 12.7012 4.82072 13.2903 4.86499L16.2475 16.7511L21.2782 4.96459H23.5215L16.9273 19.4736L14.684 29.6996H9.24546L11.4888 19.4736Z" fill="var(--acento)" />
    <path d="M24.6132 29.8988C23.3216 29.8988 22.2452 29.4672 21.3841 28.604C20.523 27.7407 20.0925 26.3905 20.0925 24.5534C20.0925 22.9155 20.421 21.2001 21.0782 19.4072C21.758 17.5922 22.7551 16.0649 24.0694 14.8254C25.4063 13.5637 26.9926 12.9329 28.8281 12.9329C29.7571 12.9329 30.4483 13.0879 30.9015 13.3977C31.3547 13.7076 31.5813 14.1171 31.5813 14.6262V14.8586L31.9552 13.0989H36.8499L34.4025 24.3874C34.3119 24.7194 34.2666 25.0736 34.2666 25.4498C34.2666 26.4016 34.7311 26.8775 35.6602 26.8775C36.2947 26.8775 36.8385 26.5898 37.2917 26.0143C37.7676 25.4388 38.1415 24.6862 38.4134 23.7566H39.841C39.0026 26.1471 37.9602 27.7739 36.7139 28.6372C35.4902 29.4783 34.2552 29.8988 33.0089 29.8988C32.0572 29.8988 31.2867 29.6443 30.6975 29.1352C30.131 28.604 29.7911 27.8403 29.6778 26.8443C29.0207 27.7518 28.2842 28.4933 27.4684 29.0688C26.6753 29.6221 25.7236 29.8988 24.6132 29.8988ZM26.8226 26.6783C27.3891 26.6783 27.9443 26.4237 28.4882 25.9147C29.0547 25.3834 29.4399 24.6641 29.6438 23.7566L31.2754 16.2531C31.2754 15.9653 31.1621 15.6886 30.9355 15.423C30.7089 15.1353 30.3576 14.9914 29.8818 14.9914C28.9754 14.9914 28.1596 15.5116 27.4344 16.5519C26.7093 17.57 26.1428 18.8096 25.7349 20.2704C25.327 21.7091 25.1231 22.9819 25.1231 24.0886C25.1231 25.1953 25.2817 25.9036 25.5989 26.2135C25.9389 26.5233 26.3467 26.6783 26.8226 26.6783Z" fill="var(--acento)" />
    <path d="M40.6693 11.8705H45.5639L45.0201 14.3606C46.1531 13.4088 47.4787 12.9329 48.997 12.9329C50.266 12.9329 51.2744 13.3424 52.0222 14.1614C52.77 14.9803 53.1439 16.3195 53.1439 18.1787C53.1439 19.9273 52.8833 21.6981 52.3621 23.491C51.8409 25.2617 50.9571 26.7779 49.7108 28.0395C48.4645 29.2791 46.8216 29.8988 44.7822 29.8988C43.3319 29.8988 42.3688 29.5004 41.8929 28.7036L40.1254 36.8047L34.9928 38L40.6693 11.8705ZM43.7284 27.0103C44.8161 27.0103 45.7112 26.5123 46.4137 25.5162C47.1388 24.5202 47.66 23.336 47.9773 21.9637C48.3172 20.5692 48.4871 19.2744 48.4871 18.0791C48.4871 16.242 47.9206 15.3234 46.7876 15.3234C46.3797 15.3234 45.9605 15.4673 45.53 15.755C45.1221 16.0428 44.7595 16.4412 44.4422 16.9503L42.4368 26.2467C42.6181 26.7558 43.0486 27.0103 43.7284 27.0103Z" fill="var(--acento)" />
    <path d="M56.2293 11.8705H61.124L60.5801 14.3606C61.7131 13.4088 63.0388 12.9329 64.557 12.9329C65.826 12.9329 66.8344 13.3424 67.5822 14.1614C68.33 14.9803 68.7039 16.3195 68.7039 18.1787C68.7039 19.9273 68.4433 21.6981 67.9221 23.491C67.4009 25.2617 66.5171 26.7779 65.2708 28.0395C64.0245 29.2791 62.3816 29.8988 60.3422 29.8988C58.8919 29.8988 57.9288 29.5004 57.453 28.7036L55.6855 36.8047L50.5529 38L56.2293 11.8705ZM59.2885 27.0103C60.3762 27.0103 61.2713 26.5123 61.9737 25.5162C62.6989 24.5202 63.2201 23.336 63.5373 21.9637C63.8772 20.5692 64.0472 19.2744 64.0472 18.0791C64.0472 16.242 63.4806 15.3234 62.3476 15.3234C61.9397 15.3234 61.5205 15.4673 61.09 15.755C60.6821 16.0428 60.3195 16.4412 60.0023 16.9503L57.9968 26.2467C58.1781 26.7558 58.6087 27.0103 59.2885 27.0103Z" fill="var(--acento)" />
    <path d="M82.007 29.8988C80.7153 29.8988 79.639 29.4672 78.7779 28.604C77.9168 27.7407 77.4862 26.3905 77.4862 24.5534C77.4862 22.9155 77.8148 21.2001 78.4719 19.4072C79.1518 17.5922 80.1488 16.0649 81.4631 14.8254C82.8001 13.5637 84.3863 12.9329 86.2218 12.9329C87.1509 12.9329 87.842 13.0879 88.2952 13.3977C88.7485 13.7076 88.9751 14.1171 88.9751 14.6262V14.759L90.6406 7.12268L95.6712 6.45865L91.7623 24.3874C91.6716 24.7194 91.6263 25.0736 91.6263 25.4498C91.6263 25.8925 91.7283 26.2135 91.9322 26.4127C92.1589 26.5897 92.5214 26.6783 93.0199 26.6783C93.6544 26.6783 94.1983 26.4127 94.6515 25.8815C95.1274 25.3502 95.5013 24.6419 95.7732 23.7566H97.2008C95.8185 27.7186 93.5411 29.6996 90.3687 29.6996C89.4396 29.6996 88.6805 29.4561 88.0913 28.9692C87.5248 28.4822 87.1736 27.7739 87.0376 26.8443C86.4484 27.7297 85.7346 28.4601 84.8962 29.0356C84.0804 29.6111 83.1173 29.8988 82.007 29.8988ZM84.2164 26.6783C84.7602 26.6783 85.3041 26.4348 85.8479 25.9479C86.4144 25.4609 86.7996 24.7858 87.0036 23.9226V23.7566L88.6691 16.1535C88.4652 15.3788 88.0007 14.9914 87.2755 14.9914C86.3691 14.9914 85.5533 15.5116 84.8282 16.5519C84.1031 17.57 83.5366 18.8096 83.1287 20.2704C82.7208 21.7091 82.5168 22.9819 82.5168 24.0886C82.5168 25.1953 82.6754 25.9036 82.9927 26.2135C83.3326 26.5233 83.7405 26.6783 84.2164 26.6783Z" fill="var(--acento)" />
    <path d="M100.409 29.8324C98.7323 29.8324 97.4067 29.4119 96.4323 28.5708C95.4579 27.7297 94.9707 26.4016 94.9707 24.5866C94.9707 23.0593 95.2766 21.3882 95.8884 19.5732C96.5003 17.7361 97.4973 16.1535 98.8796 14.8254C100.262 13.4752 102.029 12.8001 104.182 12.8001C106.856 12.8001 108.295 14.2942 108.499 17.2823C108.997 17.1716 109.439 16.906 109.825 16.4855C110.21 16.0428 110.572 15.5448 110.912 14.9914H112C111.388 16.1867 110.844 17.1274 110.368 17.8135C109.893 18.4775 109.269 19.0198 108.499 19.4404C108.363 21.521 107.921 23.3471 107.173 24.9186C106.448 26.4901 105.496 27.7075 104.318 28.5708C103.14 29.4119 101.837 29.8324 100.409 29.8324ZM101.769 26.8443C102.607 26.8443 103.389 26.1803 104.114 24.8522C104.839 23.5242 105.338 21.8862 105.61 19.9384C105.066 19.7392 104.794 19.2412 104.794 18.4443C104.794 17.5811 105.111 17.0056 105.746 16.7179C105.7 16.0096 105.576 15.5226 105.372 15.257C105.191 14.9693 104.885 14.8254 104.454 14.8254C103.706 14.8254 102.992 15.3566 102.313 16.4191C101.633 17.4594 101.078 18.7321 100.647 20.2372C100.239 21.7202 100.035 23.0261 100.035 24.155C100.035 25.2174 100.16 25.9368 100.409 26.3131C100.658 26.6672 101.112 26.8443 101.769 26.8443Z" fill="var(--acento)" />
    <path fill-rule="evenodd" clip-rule="evenodd" d="M69.9198 28.9028C70.5997 29.5668 71.4834 29.8988 72.5711 29.8988C73.8628 29.8988 75.1657 29.4783 76.48 28.6372C77.7943 27.7739 78.8707 26.1471 79.7091 23.7566H78.2815C78.0323 24.6198 77.6244 25.3281 77.0579 25.8815C76.4914 26.4127 75.8795 26.6783 75.2224 26.6783C74.7239 26.6783 74.3613 26.5897 74.1347 26.4127C73.9307 26.2135 73.8288 25.8925 73.8288 25.4498C73.8288 25.0736 73.8741 24.7194 73.9647 24.3874L76.4121 13.0989H71.5174L69.206 23.7566C69.0247 24.6419 68.9341 25.3613 68.9341 25.9147C68.9341 27.2427 69.2627 28.2388 69.9198 28.9028Z" fill="var(--acento)" />
</svg>